<svg xmlns="http://www.w3.org/2000/svg" width="136" height="33" fill="none"><path fill="#99C82A" d="M20.477 27.058s-6.355-9.117-1.336-18.134c3.846-6.502 11.468-9.7 18.763-7.872 3.403 1.093 2.068 6.983 2.068 8.43a5.7 5.7 0 0 0 .15 1.854c.19.53.705.872 1.262.838q.867-.133 1.714-.356a16.27 16.27 0 0 1-3.958 10.31c-4.034 4.268-6.758 2.134-10.34 5.207s-6.607 6.959-5.497 1.142C26.858 9.914 36.668 3.082 33.39 5.292c-9.506 6.73-12.911 21.763-12.911 21.763z"/><path fill="#1B96DA" d="M11.902 15.554A20.8 20.8 0 0 0 6.027 6.64a20.45 20.45 0 0 1 7.693 8.049l.73 1.37a19.3 19.3 0 0 1 2.244-7.618 17.95 17.95 0 0 0-6.8-3.959 17.86 17.86 0 0 0-7.826-.663A4.36 4.36 0 0 1 2.9 7.247c-.43 1.93-5.398 7.872-.43 13.893a64.6 64.6 0 0 0 10.516 9.7A34.1 34.1 0 0 0 11.9 15.553"/><path fill="#99C82A" d="M18.07 6.462a16.7 16.7 0 0 0-6.078-2.819 16.25 16.25 0 0 1 8.07-2.159c-.177.99.126 1.524 1.69 2.032a31.5 31.5 0 0 0-3.683 2.945zm-4.956 26.156S2.624 26.194.506 21.218c1.085 4.317.858 8.988 12.608 11.402zm14.348-1.142s3.127-3.403 4.439-3.403c1.311 0 5.043-1.093 5.043-1.093s-2.093 4.139-9.482 4.495zm31.206-8.2-4.66-7.557-1.864 2.696v4.861H49.17V5.53h2.973v8.49l5.688-8.49h3.385l-5.239 7.777 6.243 9.98zm11.083-1.31a2.82 2.82 0 0 1-1.352 1.101 4.9 4.9 0 0 1-2.021.428 4.36 4.36 0 0 1-3.064-1.05 3.9 3.9 0 0 1-1.133-2.969 4.3 4.3 0 0 1 .376-1.956 4.25 4.25 0 0 1 1.22-1.57 7.1 7.1 0 0 1 4.53-1.296c.401.01.8.071 1.185.182q0-2.294-2.73-2.294a5.75 5.75 0 0 0-2.702.57l-.616-2.307a7.7 7.7 0 0 1 3.514-.753 5.55 5.55 0 0 1 4.107 1.296q1.287 1.296 1.287 5.121v2.775c0 1.724.322 2.812.978 3.253-.156.355-.435.64-.785.804a3 3 0 0 1-.99.155 1.54 1.54 0 0 1-1.109-.492 2.46 2.46 0 0 1-.682-.998zm-.257-4.81A5.6 5.6 0 0 0 68.4 17q-3.385 0-3.385 2.346 0 1.738 1.904 1.75 2.574 0 2.574-2.721zm7.48 5.407-.645.959h-1.596V5.476l2.869-.713v6.04a4.5 4.5 0 0 1 2.459-.739 5.6 5.6 0 0 1 2.358.424 5.6 5.6 0 0 1 1.967 1.378 6.5 6.5 0 0 1 1.648 4.602 7.56 7.56 0 0 1-1.66 5.187 5.66 5.66 0 0 1-2.034 1.456 5.6 5.6 0 0 1-2.458.435 4.62 4.62 0 0 1-2.894-.985zm.604-9.165v6.753a2.08 2.08 0 0 0 1.7.79 3.58 3.58 0 0 0 2.933-1.05 5.2 5.2 0 0 0 .862-3.331q0-3.89-3.566-3.89a2.42 2.42 0 0 0-1.917.713zm12.537 9.165-.644.959h-1.609V5.476l2.856-.713v6.04a4.5 4.5 0 0 1 2.483-.739 5.59 5.59 0 0 1 4.338 1.802 6.5 6.5 0 0 1 1.648 4.602 7.57 7.57 0 0 1-1.66 5.187 5.7 5.7 0 0 1-2.034 1.455 5.6 5.6 0 0 1-2.457.436 4.66 4.66 0 0 1-2.92-.985zm.605-9.165v6.753a2.08 2.08 0 0 0 1.7.79 3.58 3.58 0 0 0 2.933-1.05c.655-.98.96-2.154.862-3.331q0-3.89-3.566-3.89a2.4 2.4 0 0 0-1.93.713zm17.338 8.567a2.82 2.82 0 0 1-1.352 1.102 4.9 4.9 0 0 1-2.021.428 4.4 4.4 0 0 1-3.117-1.05 3.9 3.9 0 0 1-1.133-2.969 4.28 4.28 0 0 1 1.596-3.526 7.12 7.12 0 0 1 4.531-1.296c.401.01.799.072 1.184.182q0-2.294-2.729-2.294a5.8 5.8 0 0 0-2.69.57l-.618-2.307a7.7 7.7 0 0 1 3.514-.753 5.47 5.47 0 0 1 4.107 1.296q1.287 1.296 1.287 5.121v2.775c0 1.724.322 2.812.978 3.253-.156.355-.435.64-.785.804-.319.107-.654.16-.991.155a1.55 1.55 0 0 1-1.108-.492 2.5 2.5 0 0 1-.656-.998zm-.283-4.81a5.5 5.5 0 0 0-1.095-.154q-3.385 0-3.385 2.346 0 1.738 1.903 1.75 2.574 0 2.574-2.721zm4.556 9.477 1.802-2.36a4.845 4.845 0 0 0 5.368 1.064 1.18 1.18 0 0 0 .798-1.063c0-.765-.592-1.156-1.776-1.156q-.718.017-1.429.117c-.474.066-.952.105-1.429.131q-2.947 0-2.947-2.242c.005-.477.178-.937.489-1.296a3.1 3.1 0 0 1 1.146-.908 4.66 4.66 0 0 1-2.112-4.07 4.54 4.54 0 0 1 1.442-3.448 4.95 4.95 0 0 1 3.578-1.362 5.34 5.34 0 0 1 2.703.649l1.121-1.387 1.982 1.904-1.364 1.05c.503.812.762 1.753.747 2.71a4.9 4.9 0 0 1-1.287 3.538 4.27 4.27 0 0 1-3.218 1.296 7 7 0 0 1-.824 0l-.476-.066a3 3 0 0 0-.605.259c-.36.168-.528.35-.528.545 0 .194.27.48.785.48a6.6 6.6 0 0 0 1.184-.182c.469-.109.948-.17 1.429-.181q4.172 0 4.172 3.552a3.55 3.55 0 0 1-1.672 3.085 7.06 7.06 0 0 1-4.029 1.115 8.1 8.1 0 0 1-5.046-1.775zm2.858-11.744a2.72 2.72 0 0 0 .605 1.841 2.02 2.02 0 0 0 1.609.7 1.9 1.9 0 0 0 1.57-.674c.394-.538.59-1.199.552-1.867a2.44 2.44 0 0 0-.591-1.66 1.94 1.94 0 0 0-1.546-.713 2.1 2.1 0 0 0-1.596.66 2.36 2.36 0 0 0-.605 1.686zm20.21 2.827h-8.702a3.4 3.4 0 0 0 .978 2.437c.691.6 1.587.92 2.497.856a3.86 3.86 0 0 0 2.973-1.075l1.108 2.307a6.73 6.73 0 0 1-4.505 1.296 5.78 5.78 0 0 1-4.428-1.737 6.83 6.83 0 0 1-1.622-4.848 6.95 6.95 0 0 1 1.789-4.965 6.003 6.003 0 0 1 8.624-.234 5.96 5.96 0 0 1 1.609 4.291 9 9 0 0 1-.322 1.672zm-8.637-2.28h6.063a2.78 2.78 0 0 0-.847-2.101 2.73 2.73 0 0 0-2.126-.752c-1.648.013-2.652.959-3.064 2.865z"/></svg>