<svg xmlns="http://www.w3.org/2000/svg" width="135" height="36" fill="none"><path fill="#3C3C3B" d="m48.633 10.985-.556 2.2-1.24 3.768h3.594l-1.24-3.769c-.236-.753-.556-2.199-.556-2.199zm2.415 8.043H46.23l-1.177 3.582H42.45l4.894-14.011h2.602l4.832 14.01h-2.601zm9.295 1.696c1.302 0 2.479-.942 2.479-3.205 0-1.56-.805-3.08-2.479-3.08-1.363 0-2.478 1.132-2.478 3.142 0 1.885 1.065 3.142 2.478 3.142m-.433-8.42c2.169 0 2.85 1.32 2.85 1.32V8.599h2.479v14.01h-2.367v-1.445s-.868 1.696-3.098 1.696c-2.663 0-4.398-2.136-4.398-5.278 0-3.205 1.858-5.278 4.521-5.278M71 20.913c1.302 0 2.23-1.446 2.23-2.64v-.24h-.433c-1.302 0-3.345.19-3.345 1.561.062.628.556 1.32 1.539 1.32m1.917-4.652h.372v-.126c0-1.32-.805-1.76-1.921-1.76-1.425 0-2.726.943-2.726.943l-.929-1.823s1.539-1.256 3.903-1.256c2.602 0 4.09 1.445 4.09 4.02v6.284h-2.279V21.04s-.743 1.76-3.035 1.76c-1.797 0-3.345-1.131-3.345-3.142 0-3.142 4.275-3.392 5.886-3.392m9.477 4.458c1.363 0 2.478-1.13 2.478-3.142 0-1.884-.99-3.14-2.478-3.14-1.302 0-2.479.941-2.479 3.204.062 1.56.868 3.08 2.479 3.08zm-4.833-8.169h2.23v1.446s.868-1.697 3.16-1.697c2.663 0 4.398 2.137 4.398 5.278 0 3.206-1.92 5.278-4.521 5.278-1.983 0-2.85-1.382-2.85-1.382q-.001.442.062.88v4.21h-2.479zm12.202 2.138h-1.3v-2.01h1.302V9.78h2.414v2.89h2.23v2.011h-2.23v3.896c0 1.696 1.302 1.884 1.983 1.884h.433v2.2s-.31.062-.743.062c-1.364 0-4.09-.377-4.09-3.77zm9.976 6.219c1.302 0 2.229-1.445 2.229-2.638v-.24h-.433c-1.302 0-3.345.188-3.345 1.56.062.628.498 1.32 1.54 1.32m1.92-4.648h.31v-.126c0-1.32-.805-1.76-1.921-1.76-1.425 0-2.726.942-2.726.942l-.905-1.82s1.539-1.258 3.903-1.258c2.602 0 4.09 1.446 4.09 4.022v6.282h-2.293V21.04s-.743 1.76-3.036 1.76c-1.796 0-3.345-1.131-3.345-3.142 0-3.142 4.275-3.392 5.948-3.392m3.278-3.721h2.602l2.044 6.22c.186.564.31 1.508.372 1.508l.371-1.508 2.044-6.22h2.602l-3.532 10.053h-2.973zm11.339.011h2.479V22.61h-2.479zm0-3.958h2.415v2.199h-2.415zm4.832 10.995s1.115 1.13 2.725 1.13c.682 0 1.302-.314 1.302-.941 0-1.508-4.832-1.32-4.832-4.526 0-1.884 1.672-2.953 3.779-2.953 2.23 0 3.345 1.131 3.345 1.131l-.929 1.885s-.929-.88-2.415-.88c-.619 0-1.302.24-1.302.942 0 1.445 4.833 1.257 4.833 4.46 0 1.697-1.425 3.016-3.779 3.016-2.479 0-3.841-1.508-3.841-1.508zm8.784-4.9h-1.302v-2.01h1.302V9.78h2.415v2.89h2.23v2.011h-2.23v3.896c0 1.696 1.302 1.884 1.982 1.884h.433v2.2s-.31.062-.743.062c-1.363 0-4.089-.377-4.089-3.77z"/><path fill="#EC6E25" d="M22.09 27.013c0-4.45 3.51-8.009 7.897-8.009s7.897 3.56 7.897 8.01-3.51 8.008-7.897 8.008c-4.388.089-7.897-3.559-7.897-8.009m1.14-25.805c-2.37-1.424-5.352-1.602-7.897-.178a7.8 7.8 0 0 0-3.07 3.1 7.97 7.97 0 0 0-.954 4.286A14.56 14.56 0 0 1 9.466 15a13.7 13.7 0 0 1-4.738 4.805C2.096 21.141.34 23.811.254 26.924a8.3 8.3 0 0 0 1.063 4.042 8.17 8.17 0 0 0 2.885 2.988 7.99 7.99 0 0 0 7.984.178 7.8 7.8 0 0 0 3.07-3.1 7.97 7.97 0 0 0 .955-4.286 14.56 14.56 0 0 1 1.843-6.586 13.7 13.7 0 0 1 4.738-4.805c2.632-1.335 4.387-4.004 4.474-7.118 0-2.936-1.58-5.606-3.949-6.94z"/></svg>