<svg xmlns="http://www.w3.org/2000/svg" width="135" height="38" fill="none"><path fill="#8A4182" d="M132.183 19.736c-.475-1.77-2.017-2.897-3.808-2.897-1.632 0-3.196 1.288-3.536 2.897zm2.108 3.633c-.952 2.345-3.195 3.93-5.712 3.93-3.537 0-6.37-2.804-6.37-6.414 0-3.632 2.698-6.552 6.302-6.552 1.678 0 3.355.759 4.534 1.977 1.202 1.288 1.7 2.851 1.7 4.598l-.09.989h-9.794c.363 1.702 1.905 2.943 3.628 2.943 1.201 0 2.243-.46 2.924-1.472zm-24.934-6.046h-1.564V14.7h4.33v1.747c.725-1.356 2.085-2.023 3.581-2.023 1.315 0 2.607.552 3.491 1.517.998 1.127 1.02 2.207 1.02 3.61v4.805h1.564v2.62h-5.893v-2.62h1.564v-3.978c0-.758 0-1.54-.477-2.207-.498-.666-1.314-.988-2.13-.988-.839 0-1.7.345-2.199 1.034-.521.69-.521 1.747-.521 2.575v3.564h1.563v2.62h-5.893v-2.62h1.564zm-3.967-3.794h-2.766v-2.966h2.766zm0 10.829h1.564v2.62h-5.917v-2.62h1.587v-7.035h-1.564V14.7h4.33zM80.409 17.32h-1.564V14.7h4.08v1.839c.77-1.288 1.95-2.138 3.49-2.138 1.678 0 3.084 1.034 3.764 2.575.657-1.564 2.29-2.575 3.967-2.575 1.315 0 2.607.551 3.491 1.563.952 1.127.952 2.345.952 3.747v4.645h1.564v2.62h-5.894v-2.62h1.565v-3.955c0-.805 0-1.517-.363-2.23-.454-.667-1.202-1.012-1.972-1.012-.748 0-1.565.322-2.04.92-.567.736-.567 1.426-.567 2.322v3.955h1.564v2.62h-5.894v-2.62h1.564v-3.77c0-.737 0-1.656-.362-2.3-.386-.735-1.18-1.126-1.995-1.126-.771 0-1.429.275-1.927.896-.613.759-.658 1.564-.658 2.506v3.794h1.564v2.62h-5.893v-2.62h1.564zm-9.039 6.094c.09 1.103.816 1.839 1.95 1.839.839 0 1.654-.598 1.654-1.517 0-1.219-1.133-1.426-2.062-1.679-2.109-.551-4.42-1.218-4.42-3.908 0-2.345 1.949-3.701 4.102-3.701 1.088 0 2.063.23 2.743 1.103v-.85h2.04v3.333h-2.675c-.045-.874-.702-1.448-1.564-1.448-.748 0-1.541.436-1.541 1.287 0 1.15 1.11 1.402 1.995 1.61 2.176.505 4.51 1.195 4.51 3.954 0 2.483-2.062 3.862-4.329 3.862-1.224 0-2.335-.39-3.128-1.333v1.011h-2.108v-3.563zm-7.936-2.644a3.663 3.663 0 0 0-3.65-3.656c-2.062 0-3.649 1.725-3.649 3.794 0 2 1.655 3.655 3.605 3.655 2.085 0 3.694-1.7 3.694-3.793m-.045 4.552c-.884 1.356-2.312 1.977-3.899 1.977-3.468 0-6.211-2.92-6.211-6.391 0-3.564 2.81-6.53 6.347-6.53 1.564 0 2.924.736 3.763 2.07V14.7h4.33v2.621H66.2v7.036h1.519v2.62h-4.33zm-18.68-2.965c.023 1.011.635 2.046 1.769 2.046.68 0 1.178-.322 1.519-.897.317-.575.317-1.425.317-2.069v-8.253h-1.768v-2.622h6.596v2.622h-1.745v8.644c0 1.471-.091 2.62-1.11 3.816-.908 1.058-2.381 1.656-3.787 1.656-2.901 0-5.123-1.954-5.01-4.943zm-27.632-6.954h2.825l.702-.98V6.746h-4.229v7.677z"/><path fill="#8A4182" d="M17.868 30.372h1.172v-5.836h-1.172zM7.42 22.619l-.362-1.13 5.472-1.803.362 1.13zm7.06-8.883-3.38-4.72.948-.7 3.381 4.722zm8.078.044-.948-.699 3.382-4.721.948.698zm6.98 8.91-5.473-1.804.362-1.13 5.472 1.803zM20.85 16.1l.874 2.726 1.135.373 7.2-2.371-1.308-4.08-7.199 2.373zm.514 3.855L19.08 21.64v1.211l4.45 6.211 3.42-2.52-4.45-6.212zm-3.458 1.685-2.285-1.685-1.136.375-4.45 6.21 3.422 2.521 4.45-6.21zm-2.649-2.815.873-2.725-.702-.98-7.199-2.373-1.307 4.08 7.2 2.372zM18.494.082C8.437.082.255 8.379.255 18.578c0 10.203 8.183 18.503 18.24 18.503s18.239-8.3 18.239-18.503C36.733 8.38 28.55.082 18.495.082m0 3.745c8.032 0 14.546 6.604 14.546 14.751 0 8.15-6.514 14.757-14.545 14.757-8.035 0-14.548-6.606-14.548-14.757 0-8.147 6.513-14.75 14.548-14.75"/></svg>