<svg xmlns="http://www.w3.org/2000/svg" width="136" height="43" fill="none"><path fill="#ED2C41" d="M108.52 16.565h-3.135v1.575c-1.089-1.211-2.565-1.902-4.249-1.902-3.68 0-6.349 3.074-6.349 7.318 0 4.089 2.668 7.085 6.322 7.085 1.708 0 3.005-.573 4.276-1.953v1.902c0 2.839-1.114 4.245-3.446 4.245-1.244 0-2.488-.625-3.031-1.587-.31-.545-.415-1.066-.518-2.241h-3.055c.026 4.089 2.538 6.641 6.58 6.641 2.306 0 4.328-.937 5.442-2.629.907-1.302 1.166-2.5 1.166-5.157zm-6.814 2.448c2.254 0 3.809 1.77 3.809 4.361 0 2.657-1.504 4.428-3.757 4.428-2.28 0-3.758-1.72-3.758-4.376-.026-2.657 1.451-4.401 3.706-4.401z"/><path fill="#646569" d="M48.203 16.57v13.62h3.109v-7.03c0-2.89.777-4.141 2.526-4.141 1.4 0 2.073 1.171 2.073 3.62v7.554h3.109V23.16c0-2.918.777-4.141 2.526-4.141 1.504 0 2.073 1.015 2.073 3.594v7.58h3.109v-8.414c0-3.635-1.555-5.573-4.572-5.573-1.658 0-3.032.702-3.99 2.005-.843-1.303-2.1-2.005-3.602-2.005-1.348 0-2.045.363-3.212 1.615v-1.252zm30.211 0v1.574c-1.347-1.381-2.526-1.953-4.21-1.953-3.628 0-6.4 3.047-6.4 7.085 0 4.272 2.694 7.318 6.476 7.318 1.633 0 2.695-.495 4.146-1.85v1.433h3.135V16.569zm-3.679 2.446c2.28 0 3.85 1.824 3.85 4.376 0 2.63-1.58 4.402-3.85 4.402-2.201 0-3.757-1.849-3.757-4.402 0-2.526 1.606-4.376 3.757-4.376m12.41-2.447h-3.134v13.622h3.135zm-1.527-7.58c-1.167 0-2.073.912-2.073 2.033s.932 2.082 2.022 2.082c1.14 0 2.073-.937 2.073-2.084a2.013 2.013 0 0 0-2.02-2.031zm4.403-3.462h3.135v24.667h-3.135z"/><path fill="#ED2C41" d="M113.521 16.567h-3.136v7.892c0 2.136.389 3.308 1.426 4.428 1.088 1.12 2.564 1.72 4.352 1.72 1.814 0 3.291-.572 4.379-1.72 1.035-1.12 1.426-2.292 1.426-4.428v-7.892h-3.135v7.839c0 2.317-.842 3.386-2.669 3.386-1.814 0-2.643-1.066-2.643-3.386zm10.519 0V30.19h3.135v-6.564c0-3.36.777-4.585 2.887-4.585 1.943 0 2.526.885 2.526 3.568v7.606h3.136v-8.36c0-3.828-1.581-5.626-4.897-5.626-1.477 0-2.41.417-3.627 1.615v-1.25h-3.162zM21.341 13.615a7.95 7.95 0 0 0-5.628 2.348 8.06 8.06 0 0 0-2.34 5.664 8.06 8.06 0 0 0 2.34 5.663 7.95 7.95 0 0 0 5.629 2.348 7.95 7.95 0 0 0 5.628-2.348 8.06 8.06 0 0 0 2.34-5.663 8.06 8.06 0 0 0-2.34-5.664 7.95 7.95 0 0 0-5.628-2.348M8.936 21.627a12.54 12.54 0 0 1 3.64-8.821 12.36 12.36 0 0 1 8.766-3.65c6.847 0 12.405 5.572 12.405 12.47 0 .477-.043.91-.086 1.343-.087 1.211.776 2.12 1.981 2.12 2.025 0 2.24-2.641 2.24-3.507 0-9.224-7.41-16.67-16.585-16.67-9.174 0-16.584 7.448-16.584 16.67 0 9.224 7.41 16.671 16.585 16.671 4.868 0 9.22-2.12 12.277-5.456l3.405 2.859a20.88 20.88 0 0 1-15.68 7.058C9.667 42.714.276 33.231.276 21.582.277 9.89 9.712.449 21.3.449c11.631 0 21.022 9.484 21.022 21.133 0 4.676-2.24 8.488-6.676 8.488-1.982 0-3.145-.909-3.835-1.906-2.196 3.55-6.075 5.888-10.554 5.888-6.764.044-12.32-5.543-12.32-12.428zm12.406-3.681c2.024 0 3.662 1.645 3.662 3.637a3.7 3.7 0 0 1-1.073 2.607 3.65 3.65 0 0 1-2.589 1.08 3.65 3.65 0 0 1-2.589-1.08 3.7 3.7 0 0 1-1.072-2.607c.043-1.992 1.636-3.637 3.662-3.637z"/></svg>