<svg xmlns="http://www.w3.org/2000/svg" width="60" height="60" fill="none"><rect width="60" height="60" fill="#246BFD" opacity=".1" rx="10"/><path fill="#246BFD" d="M46.832 18.384v23.23c0 .874-.71 1.584-1.584 1.584h-5.247v3.521a.594.594 0 0 1-.594.594h-8.818l.675.675a.591.591 0 0 1-.42 1.012.6.6 0 0 1-.421-.173l-1.517-1.517h-8.313a.594.594 0 0 1-.594-.594v-3.518h-5.247c-.874 0-1.584-.71-1.584-1.584v-23.23c0-.873.71-1.583 1.584-1.583h5.247v-3.516c0-.327.265-.591.59-.594h8.822l-.675-.678a.59.59 0 0 1 0-.839.59.59 0 0 1 .838 0l1.517 1.517h8.316c.329 0 .594.267.594.594v3.518h5.247a1.58 1.58 0 0 1 1.584 1.581m-1.188 23.233v-2.093H33.172v2.093c0 .218.178.396.396.396h11.68a.397.397 0 0 0 .396-.396m0-3.28v-17.49H33.172v17.49zm0-18.679v-1.274a.397.397 0 0 0-.396-.396h-11.68a.397.397 0 0 0-.396.396v1.274zm-6.83-2.857v-2.925H31.09l-1.517 1.517a.6.6 0 0 1-.42.173.591.591 0 0 1-.42-1.012l.677-.678h-8.224v2.925h5.248c.873 0 1.583.71 1.583 1.583v23.23c0 .874-.71 1.584-1.583 1.584h-5.248v2.925h7.722l1.517-1.517a.59.59 0 0 1 .838 0 .59.59 0 0 1 0 .839l-.678.678h8.225v-2.925h-5.248c-.874 0-1.584-.71-1.584-1.584v-23.23c0-.873.71-1.583 1.584-1.583zM26.827 41.617v-2.093H14.356v2.093c0 .218.178.396.396.396h11.68c.22 0 .396-.178.396-.396m0-3.28v-17.49H14.356v17.49zm0-18.679v-1.274a.397.397 0 0 0-.396-.396h-11.68a.397.397 0 0 0-.396.396v1.274z"/></svg>