<?xml version="1.0" encoding="UTF-8"?>
<svg id="Layer_2" data-name="Layer 2" xmlns="http://www.w3.org/2000/svg" xmlns:xlink="http://www.w3.org/1999/xlink" viewBox="0 0 279.14 297.12">
  <defs>
    <style>
      .cls-1 {
        fill: url(#linear-gradient-2);
      }

      .cls-2 {
        fill: url(#linear-gradient);
      }
    </style>
    <linearGradient id="linear-gradient" x1="0" y1="111.78" x2="162.9" y2="111.78" gradientUnits="userSpaceOnUse">
      <stop offset="0" stop-color="#255c8a"/>
      <stop offset="1" stop-color="#2c3176"/>
    </linearGradient>
    <linearGradient id="linear-gradient-2" x1="117.7" y1="187.73" x2="279.14" y2="187.73" gradientUnits="userSpaceOnUse">
      <stop offset="0" stop-color="#54b659"/>
      <stop offset="1" stop-color="#39936c"/>
    </linearGradient>
  </defs>
  <g id="Layer_1-2" data-name="Layer 1">
    <g>
      <path class="cls-2" d="M139.05,125.31c14.02-.77,23.89-12.27,23.85-26.23l-.22-77.43C162.65,9.18,151.35-.21,139.54,0c-11.25.2-21.84,9.62-21.88,21.82l-.19,57.71-47.03.32c-8.39.06-13.97,2.83-19.59,8.68L6.98,134.18c-9.1,9.47-9.5,23.95-.02,33.79l43.85,45.51c4.97,5.16,10.41,9.4,18.25,10.01,10.38.81,19.09-5.59,22.84-13.76,4.02-8.77,2.42-19.62-4.84-26.47l-34.11-32.19,24.07-25.45c20.74.03,41.1.86,62.03-.3ZM137.39,15.23c4.76-2.08,9.3.72,10.94,4.78,1.77,4.39-.42,9.12-4.92,11.01-3.96,1.66-8.69-.08-10.65-4.28-1.83-3.93-.31-9.35,4.63-11.51ZM63.89,194.67c2.74-3.64,7.33-4.57,11.07-2.42,3.71,2.13,5.68,6.99,2.95,11.37-2.8,4.5-8.27,5.48-11.96,3.06-3.97-2.6-5.01-8.11-2.06-12.01ZM33.69,148.76c-1.34,1.39-1.26,3.69.22,5.15l24.6,24.22c-3.95,3.63-6.8,6.76-10.08,11.38l-29.53-30.17c-4.45-4.54-4.92-10.78-.4-15.5l40.39-42.13c1.82-1.9,5.34-5.73,7.88-5.73l66.25-.02c.31-5.83.62-10.71.55-15.92l-.43-34c5.79,1.26,9.27,1.31,14.5.18l-.33,55.23c-.03,4.67-4.87,8.22-9.04,8.18l-54.03-.5c-4.44-.04-8.44.22-12.99.46l-37.57,39.18Z"/>
      <path class="cls-1" d="M269.82,131.06l-44.93-45.25c-7.11-7.16-17.55-9.44-26.72-5.68-8.16,3.34-14.7,11.84-14.52,21.68.12,6.74,3.2,13.18,8.35,17.6,11.82,10.16,22.99,19.98,34.73,31.37l-22.3,23.02-64.64.22c-12.42.04-22.07,12.47-22.07,24.52v75.06c-.01,12.02,8.28,22.39,21.11,23.47,10.67.9,23.15-8.16,23.21-19.89l.3-58.45,54.25-.18c5.17-.02,9.47-3.72,13.25-6.84l40.6-42.04c11.89-12.31,11.53-26.37-.62-38.6ZM208.24,110.62c-5.78.5-9.7-3.6-9.84-8.33-.15-5.07,3.84-9.25,9.39-9.01,4.79.21,8.14,3.9,8.5,8.35.34,4.22-2.74,8.52-8.05,8.98ZM145.04,281.05c-3.9,2.92-9.07,2.07-11.7-1.74-2.8-4.05-1.2-9.35,3.48-11.71,3.96-2,8.11-.89,10.38,2.44,2.54,3.73,1.69,8.13-2.16,11.01ZM260.28,158.69l-37.54,38.96c-2.04,2.12-5.32,5.18-8,6l-66.65-.16-.28,50.03c-5.08-1.66-8.71-2.24-14.97-1.13l-.13-53.12c-.01-5.19,3.41-9.73,8.94-9.69l63.53.44c3.83.32,6.7-1.45,9.23-4.17l32.75-35.17-28.08-27.75c4.85-2.58,8.27-5.48,10.86-10.72l30.26,30.15c4.67,4.65,4.53,11.72.08,16.34Z"/>
    </g>
  </g>
</svg>