<svg xmlns="http://www.w3.org/2000/svg" width="60" height="60" fill="none"><rect width="60" height="60" fill="#246BFD" opacity=".1" rx="10"/><path fill="#246BFD" d="M45.16 17.408v30.998c0 .33-.266.594-.593.594H15.434a.594.594 0 0 1-.594-.594V11.594c0-.33.267-.594.594-.594H38.72c.156 0 .31.064.42.173l1.948 1.947 3.896 3.897a.57.57 0 0 1 .176.39m-1.187 30.405V18.03h-5.25a.59.59 0 0 1-.593-.594v-5.25H16.027v35.626zm-4.656-30.97h3.818l-3.818-3.817z"/><path fill="#246BFD" d="M39.286 19.477a.594.594 0 0 1 0 1.188H31.48a.594.594 0 0 1 0-1.188zm-.004 3.308a.594.594 0 0 1 0 1.188H27.617a.59.59 0 0 1-.594-.594c0-.33.265-.594.594-.594zm.001 3.309a.594.594 0 0 1 0 1.187h-5.685a.594.594 0 0 1 0-1.187zm.002 3.312a.594.594 0 0 1 0 1.188h-10.91a.594.594 0 0 1 0-1.188zm.002 3.313a.594.594 0 0 1 0 1.187H33.75a.59.59 0 0 1-.594-.593c0-.33.265-.594.594-.594zm-.003 3.304a.594.594 0 0 1 0 1.188H29.79a.594.594 0 0 1 0-1.188zm.004 3.313a.594.594 0 0 1 0 1.187h-5.339a.59.59 0 0 1-.593-.593c0-.33.264-.594.593-.594zm0 3.309a.594.594 0 0 1 0 1.188h-9.05a.594.594 0 0 1 0-1.188zm-6.993-26.477a.594.594 0 0 1 0 1.188h-11.58a.594.594 0 0 1 0-1.187zm-.774 23.168a.594.594 0 0 1 0 1.187H20.715a.594.594 0 0 1 0-1.187zm-.326-13.242a.594.594 0 0 1 0 1.187h-10.48a.594.594 0 0 1 0-1.187zm-.169 6.625a.594.594 0 0 1 0 1.187H20.715a.594.594 0 0 1 0-1.187zM28.51 19.477a.592.592 0 1 1 0 1.188h-7.795a.594.594 0 0 1 0-1.188zm-.848 23.168a.594.594 0 0 1 0 1.188h-6.947a.594.594 0 0 1 0-1.188zm-.396-6.622a.594.594 0 0 1 0 1.188h-6.551a.594.594 0 0 1 0-1.188zm-1.416-6.617a.594.594 0 0 1 0 1.188h-5.135a.594.594 0 0 1 0-1.188zm-.457-6.621a.594.594 0 0 1 0 1.188h-4.678a.594.594 0 0 1 0-1.187z"/></svg>