<svg xmlns="http://www.w3.org/2000/svg" width="65" height="65" fill="none"><g clip-path="url(#a)"><path fill="#E4EAF8" d="M63.078 27.754H57.56a.39.39 0 0 1-.381-.314 25 25 0 0 0-3.651-8.812.39.39 0 0 1 .048-.491l3.903-3.903c.75-.75.75-1.967 0-2.718l-3.994-3.994a1.92 1.92 0 0 0-2.718 0l-3.903 3.903a.39.39 0 0 1-.492.048 25 25 0 0 0-8.811-3.651.39.39 0 0 1-.314-.382V1.922A1.923 1.923 0 0 0 35.324 0h-5.648c-1.061 0-1.922.86-1.922 1.922V7.44a.39.39 0 0 1-.314.382 25 25 0 0 0-8.812 3.651.39.39 0 0 1-.491-.048l-3.903-3.903a1.92 1.92 0 0 0-2.718 0l-3.994 3.994c-.75.75-.75 1.967 0 2.718l3.903 3.903a.39.39 0 0 1 .048.491 25 25 0 0 0-3.651 8.812.39.39 0 0 1-.382.314H1.922C.86 27.754 0 28.614 0 29.676v5.648c0 1.061.86 1.922 1.922 1.922H7.44a.39.39 0 0 1 .382.314 25 25 0 0 0 3.651 8.811.39.39 0 0 1-.048.492l-3.903 3.903c-.75.75-.75 1.967 0 2.718l3.994 3.994c.75.75 1.967.75 2.718 0l3.903-3.903a.39.39 0 0 1 .491-.048 25 25 0 0 0 8.812 3.65.39.39 0 0 1 .314.383v5.518c0 1.062.86 1.922 1.922 1.922h5.648c1.061 0 1.922-.86 1.922-1.922V57.56a.39.39 0 0 1 .314-.381 25 25 0 0 0 8.812-3.651.39.39 0 0 1 .491.048l3.903 3.903c.75.75 1.968.75 2.718 0l3.994-3.994c.75-.75.75-1.967 0-2.718l-3.903-3.903a.39.39 0 0 1-.048-.492 25 25 0 0 0 3.651-8.811.39.39 0 0 1 .382-.314h5.518c1.062 0 1.922-.86 1.922-1.922v-5.648c0-1.061-.86-1.922-1.922-1.922"/><path fill="#D8DCE5" d="M11.425 18.137a.39.39 0 0 1 .048.492 25 25 0 0 0-3.651 8.812.39.39 0 0 1-.382.314h2.616a.39.39 0 0 0 .382-.314 25 25 0 0 1 3.65-8.812.39.39 0 0 0-.047-.492l-3.903-3.903a1.92 1.92 0 0 1 0-2.717l3.994-3.994.05-.046a1.92 1.92 0 0 0-2.666.046l-3.994 3.994c-.75.75-.75 1.967 0 2.717zm-8.81 17.188v-5.648c0-1.062.861-1.922 1.923-1.922H1.922C.86 27.755 0 28.615 0 29.677v5.648c0 1.061.86 1.921 1.922 1.921h2.616a1.92 1.92 0 0 1-1.922-1.921m11.517 22.153-3.994-3.993a1.92 1.92 0 0 1 0-2.718l3.903-3.903a.39.39 0 0 0 .048-.492 25 25 0 0 1-3.651-8.812.39.39 0 0 0-.382-.313H7.44a.39.39 0 0 1 .382.313 25 25 0 0 0 3.651 8.812.39.39 0 0 1-.048.492l-3.903 3.903c-.75.75-.75 1.967 0 2.718l3.994 3.993a1.92 1.92 0 0 0 2.667.047l-.051-.047"/><path fill="#54A0FF" d="M32.54 49.087c9.16 0 16.586-7.426 16.586-16.586S41.7 15.914 32.54 15.914 15.953 23.34 15.953 32.501 23.38 49.087 32.54 49.087"/><path fill="#338DEF" d="M18.569 32.5c0-8.72 6.73-15.868 15.278-16.535a17 17 0 0 0-1.308-.05c-9.16 0-16.586 7.425-16.586 16.585S23.38 49.086 32.54 49.086q.66 0 1.308-.051C25.299 48.368 18.57 41.22 18.57 32.5"/><path fill="#54A0FF" d="M32.498 45.444c7.15 0 12.946-5.796 12.946-12.946S39.648 19.55 32.498 19.55 19.55 25.347 19.55 32.498s5.796 12.946 12.947 12.946"/><path fill="#338DEF" d="M23.23 32.499c0-6.526 4.828-11.923 11.107-12.816-7.844-1.116-14.786 4.97-14.786 12.816 0 7.857 6.953 13.93 14.786 12.815-6.279-.893-11.106-6.29-11.106-12.815"/><path fill="#8AC2FF" d="M24.91 20.835c-8.344 5.424-8.522 17.807.006 23.344 9.099 5.933 21.513-.516 21.513-11.674 0-10.98-12.267-17.713-21.52-11.67m17.879 17.771a14.7 14.7 0 0 0-2.728-1.309c.245-1.197.4-2.476.451-3.811h3.915a11.84 11.84 0 0 1-1.638 5.12m-22.212-5.12h3.915q.074 1.965.452 3.811c-1.001.366-1.92.805-2.729 1.31a11.8 11.8 0 0 1-1.638-5.121m1.637-7.083c.809.504 1.728.943 2.73 1.31a23.5 23.5 0 0 0-.452 3.81h-3.915c.147-1.809.707-3.56 1.637-5.12m5.172-4.71c-.862 1.221-1.506 2.665-1.955 4.112a12.6 12.6 0 0 1-2.078-1.002 12 12 0 0 1 4.033-3.11m14.265 3.11c-.62.379-1.32.713-2.078 1.002-.492-1.589-1.158-2.983-1.955-4.112a12 12 0 0 1 4.033 3.11m-4.033 18.514c.798-1.13 1.463-2.523 1.955-4.113a12.6 12.6 0 0 1 2.077 1.002 11.9 11.9 0 0 1-4.032 3.11m-14.263-3.111a12.6 12.6 0 0 1 2.076-1.001c.493 1.589 1.158 2.983 1.955 4.112a11.9 11.9 0 0 1-4.031-3.111m3.102-6.72h5.064v2.568a23 23 0 0 0-4.682.663 21 21 0 0 1-.382-3.231m.382-5.193c1.468.37 3.052.598 4.682.663v2.568h-5.064c.052-1.175.19-2.274.382-3.231m4.682-7.589v6.287a21 21 0 0 1-4.205-.596c.675-2.185 2.06-4.964 4.205-5.69m-4.205 17.91a21 21 0 0 1 4.205-.596v6.287c-2.156-.722-3.533-3.517-4.205-5.69m6.167 5.691v-6.287a21 21 0 0 1 4.206.597c-.91 2.942-2.443 5.097-4.206 5.69m0-8.251v-2.568h5.065a21.6 21.6 0 0 1-.382 3.23 23 23 0 0 0-4.683-.662m0-4.53v-2.568a23 23 0 0 0 4.683-.663c.202 1.022.333 2.107.382 3.231zm0-4.533v-6.287c1.763.594 3.296 2.748 4.206 5.69-1.31.33-2.733.534-4.206.597m7.03 4.533a23.5 23.5 0 0 0-.452-3.812 14.7 14.7 0 0 0 2.73-1.31 11.9 11.9 0 0 1 1.636 5.122z"/><path fill="#D8DCE5" d="M30.371 1.922C30.371.86 31.231 0 32.293 0h-2.616c-1.061 0-1.922.86-1.922 1.922V7.44a.39.39 0 0 1-.314.382s.91-.258 2.114-.35a.88.88 0 0 0 .816-.878zm0 61.156v-4.824a.71.71 0 0 0-.67-.712c-1.193-.06-1.954-.269-2.183-.34a.39.39 0 0 1 .237.357v5.519c0 1.061.86 1.922 1.922 1.922h2.616a1.92 1.92 0 0 1-1.922-1.922"/></g><defs><clipPath id="a"><path fill="#fff" d="M0 0h65v65H0z"/></clipPath></defs></svg>