<svg xmlns="http://www.w3.org/2000/svg" width="123" height="123" fill="none"><g filter="url(#a)"><rect width="85" height="85" x="19" y="14" fill="#fff" rx="5"/></g><path fill="#246BFD" d="M79.926 64.678c.05.089.074.193.074.294a5.68 5.68 0 0 1-1.675 4.035 5.68 5.68 0 0 1-4.045 1.675H47.764c-1.526 0-3-.591-4.082-1.668A5.68 5.68 0 0 1 42 64.972a.595.595 0 0 1 .594-.601h1.31V44.626c0-.725.59-1.313 1.315-1.313H76.78c.725 0 1.314.588 1.314 1.313v19.745h1.311c.213 0 .413.114.52.307m-36.699.88a4.54 4.54 0 0 0 4.493 3.939h26.563c1.21 0 2.347-.473 3.204-1.329a4.5 4.5 0 0 0 1.288-2.61H65.708l-.002.008-.431 1.803a.59.59 0 0 1-.576.456h-7.395a.59.59 0 0 1-.577-.456l-.43-1.803-.002-.008zm33.68-1.187V44.626a.127.127 0 0 0-.126-.126H45.22a.127.127 0 0 0-.127.126v19.745h11.67c.243 0 .376.114.48.28q.092.145.131.314l.401 1.672h6.454l.401-1.672q.04-.169.131-.315c.104-.163.238-.28.48-.28z"/><path fill="#246BFD" d="M68.112 51.088a.594.594 0 0 1-.836.841c-3.458-3.439-9.09-3.444-12.55-.007a.594.594 0 0 1-.836-.841 10.05 10.05 0 0 1 7.107-2.925h.008c1.306 0 2.578.248 3.782.735a10 10 0 0 1 3.325 2.197"/><path fill="#246BFD" d="M66.143 54.212a.597.597 0 0 1-.418 1.016.6.6 0 0 1-.419-.173c-2.372-2.36-6.236-2.362-8.611-.005a.594.594 0 0 1-.837-.841A7.26 7.26 0 0 1 61 52.094h.005a7.23 7.23 0 0 1 5.139 2.117m-1.973 3.129a.594.594 0 0 1-.836.841 3.324 3.324 0 0 0-4.676-.002.594.594 0 0 1-.836-.842 4.48 4.48 0 0 1 3.172-1.306h.002a4.47 4.47 0 0 1 3.174 1.309m-3.175 2.2a.972.972 0 1 1 0 1.944.972.972 0 0 1 0-1.945"/><defs><filter id="a" width="121.8" height="121.8" x=".6" y=".4" color-interpolation-filters="sRGB" filterUnits="userSpaceOnUse"><feFlood flood-opacity="0" result="BackgroundImageFix"/><feColorMatrix in="SourceAlpha" result="hardAlpha" values="0 0 0 0 0 0 0 0 0 0 0 0 0 0 0 0 0 0 127 0"/><feMorphology in="SourceAlpha" radius="6" result="effect1_dropShadow_124_2"/><feOffset dy="4.8"/><feGaussianBlur stdDeviation="12.2"/><feColorMatrix values="0 0 0 0 0.0745098 0 0 0 0 0.0627451 0 0 0 0 0.133333 0 0 0 0.1 0"/><feBlend in2="BackgroundImageFix" result="effect1_dropShadow_124_2"/><feBlend in="SourceGraphic" in2="effect1_dropShadow_124_2" result="shape"/></filter></defs></svg>