<svg xmlns="http://www.w3.org/2000/svg" width="123" height="123" fill="none"><g filter="url(#a)"><rect width="85" height="85" x="19" y="14" fill="#fff" rx="5"/></g><path fill="#246BFD" d="M79.043 69.745c.341 0 .616.277.616.616a5.6 5.6 0 0 1-1.653 3.987A5.6 5.6 0 0 1 74.02 76H47.983a5.6 5.6 0 0 1-3.987-1.652 5.6 5.6 0 0 1-1.652-3.987.616.616 0 0 1 .615-.616h1.253v-19.32c0-.728.592-1.32 1.32-1.32h8.714v-1.486l-2.61-2.61a.62.62 0 0 1-.179-.436v-2.358A2.154 2.154 0 0 1 52.073 38a2.154 2.154 0 0 1 .615 4.215v2.104l2.61 2.607a.62.62 0 0 1 .182.439v1.74h4.906v-6.866a2.16 2.16 0 0 1-1.537-2.063 2.154 2.154 0 0 1 4.305 0 2.16 2.16 0 0 1-1.537 2.063v6.868h4.908v-1.74c0-.164.067-.323.182-.438l2.607-2.61v-2.104A2.154 2.154 0 0 1 69.93 38a2.154 2.154 0 0 1 .616 4.215v2.358c0 .164-.065.32-.18.436l-2.61 2.61v1.485h8.714c.728 0 1.32.593 1.32 1.322v19.319zm-.66 1.231h-12.76l-.405 1.455a.61.61 0 0 1-.593.45H57.38a.616.616 0 0 1-.593-.45l-.406-1.455H43.62a4.414 4.414 0 0 0 4.364 3.793h26.034c1.178 0 2.283-.46 3.117-1.291a4.36 4.36 0 0 0 1.25-2.502m-1.824-1.231v-19.32a.09.09 0 0 0-.09-.09H45.534a.09.09 0 0 0-.09.09v19.32h11.404c.277 0 .519.185.593.451l.406 1.455h6.311l.405-1.454a.615.615 0 0 1 .593-.452zm-5.708-29.59a.922.922 0 0 0-1.842 0 .922.922 0 0 0 1.842 0m-8.929.02a.922.922 0 0 0-1.842 0 .922.922 0 0 0 1.842 0m-8.928-.02a.922.922 0 0 0-1.842 0 .922.922 0 0 0 1.842 0"/><path fill="#246BFD" d="M73.375 52.96a.616.616 0 0 1 0 1.233H60.14a.614.614 0 0 1-.616-.616c0-.341.275-.616.616-.616zm0 3.235a.616.616 0 0 1 0 1.231H60.14a.616.616 0 0 1 0-1.23zm0 3.235a.616.616 0 0 1 0 1.231H60.14a.614.614 0 0 1-.616-.616c0-.34.275-.615.616-.615zm.006 3.234a.616.616 0 0 1 0 1.232H48.627a.616.616 0 0 1 0-1.232zm0 3.234a.616.616 0 0 1 0 1.232H48.627a.62.62 0 0 1-.615-.616c0-.338.277-.616.615-.616zM55.475 53.577v6.47a.616.616 0 0 1-.616.616h-6.232a.616.616 0 0 1-.615-.616v-6.47c0-.341.277-.616.615-.616h6.232c.34 0 .616.275.616.616m-1.231 5.852v-5.236h-5v5.239z"/><defs><filter id="a" width="121.8" height="121.8" x=".6" y=".4" color-interpolation-filters="sRGB" filterUnits="userSpaceOnUse"><feFlood flood-opacity="0" result="BackgroundImageFix"/><feColorMatrix in="SourceAlpha" result="hardAlpha" values="0 0 0 0 0 0 0 0 0 0 0 0 0 0 0 0 0 0 127 0"/><feMorphology in="SourceAlpha" radius="6" result="effect1_dropShadow_2011_117"/><feOffset dy="4.8"/><feGaussianBlur stdDeviation="12.2"/><feColorMatrix values="0 0 0 0 0.0745098 0 0 0 0 0.0627451 0 0 0 0 0.133333 0 0 0 0.1 0"/><feBlend in2="BackgroundImageFix" result="effect1_dropShadow_2011_117"/><feBlend in="SourceGraphic" in2="effect1_dropShadow_2011_117" result="shape"/></filter></defs></svg>