<svg xmlns="http://www.w3.org/2000/svg" width="123" height="123" fill="none"><g filter="url(#a)"><rect width="85" height="85" x="19" y="14" fill="#fff" rx="5"/></g><path fill="#246BFD" d="M78.113 62.618c-.832 0-1.539.541-1.789 1.29h-1.68l-2.171-2.171a.6.6 0 0 0-.42-.173h-1.386v-3.97h5.637c.25.75.958 1.29 1.789 1.29A1.89 1.89 0 0 0 79.978 57a1.89 1.89 0 0 0-1.885-1.885 1.89 1.89 0 0 0-1.789 1.291h-5.637v-3.97h1.385a.6.6 0 0 0 .42-.173l2.173-2.172h1.68c.249.75.956 1.291 1.788 1.291a1.89 1.89 0 0 0 1.885-1.884 1.89 1.89 0 0 0-1.885-1.885c-.832 0-1.539.541-1.789 1.29H74.4a.6.6 0 0 0-.42.174l-2.173 2.172h-1.14v-3.325a.59.59 0 0 0-.594-.593H66.75v-1.14l2.172-2.173a.6.6 0 0 0 .173-.42v-1.925a1.89 1.89 0 0 0 1.291-1.788A1.89 1.89 0 0 0 68.5 38a1.89 1.89 0 0 0-1.885 1.885c0 .831.542 1.538 1.291 1.788v1.68l-2.172 2.172a.6.6 0 0 0-.173.42v1.386h-3.967v-5.638a1.89 1.89 0 0 0 1.29-1.788A1.89 1.89 0 0 0 61 38.02a1.89 1.89 0 0 0-1.885 1.885c0 .83.542 1.538 1.291 1.788v5.638h-3.97v-1.386a.6.6 0 0 0-.173-.42l-2.172-2.172v-1.68a1.89 1.89 0 0 0 1.291-1.788A1.89 1.89 0 0 0 53.498 38a1.89 1.89 0 0 0-1.885 1.885c0 .831.541 1.538 1.29 1.788v1.925c0 .158.063.309.174.42l2.172 2.172v1.14h-3.325a.59.59 0 0 0-.593.594v3.325h-1.14l-2.173-2.172a.6.6 0 0 0-.42-.173h-1.925a1.89 1.89 0 0 0-1.788-1.291A1.89 1.89 0 0 0 42 49.498c0 1.038.846 1.884 1.885 1.884.831 0 1.538-.541 1.788-1.29h1.68l2.172 2.171a.6.6 0 0 0 .42.173h1.386v3.97h-5.638a1.89 1.89 0 0 0-1.788-1.29A1.89 1.89 0 0 0 42.02 57c0 1.039.846 1.885 1.885 1.885a1.89 1.89 0 0 0 1.788-1.291h5.638v3.97h-1.386a.6.6 0 0 0-.42.173l-2.172 2.172h-1.68a1.89 1.89 0 0 0-1.788-1.291A1.89 1.89 0 0 0 42 64.502c0 1.04.846 1.886 1.885 1.886.831 0 1.538-.542 1.788-1.292h1.925a.6.6 0 0 0 .42-.173l2.172-2.172h1.14v3.325c0 .329.265.593.594.593h3.325v1.14l-2.172 2.173a.6.6 0 0 0-.173.42v1.925c-.75.25-1.291.957-1.291 1.788 0 1.039.846 1.885 1.885 1.885a1.89 1.89 0 0 0 1.884-1.885c0-.831-.541-1.538-1.29-1.788v-1.68l2.171-2.172a.6.6 0 0 0 .173-.42v-1.386h3.97v5.638A1.886 1.886 0 0 0 61 75.98a1.89 1.89 0 0 0 1.885-1.885 1.89 1.89 0 0 0-1.291-1.788v-5.638h3.97v1.386a.6.6 0 0 0 .173.42l2.172 2.172v1.68c-.75.25-1.291.957-1.291 1.788 0 1.039.846 1.885 1.885 1.885a1.89 1.89 0 0 0 1.885-1.885c0-.831-.542-1.538-1.292-1.788v-1.925a.6.6 0 0 0-.173-.42l-2.172-2.172v-1.14h3.325a.59.59 0 0 0 .593-.594V62.75h1.14l2.173 2.172a.6.6 0 0 0 .42.173h1.925c.25.75.957 1.291 1.788 1.291A1.89 1.89 0 0 0 80 64.503a1.89 1.89 0 0 0-1.887-1.884m-.018-6.316a.698.698 0 1 1-.001 1.397.698.698 0 0 1 .001-1.397m.018-7.502a.698.698 0 1 1-.002 1.397.698.698 0 0 1 .002-1.397m-10.308-8.913a.698.698 0 1 1 1.397.002.698.698 0 0 1-1.397-.002m-7.503.018a.698.698 0 1 1 1.397.001.698.698 0 0 1-1.397-.001m-7.502-.018a.698.698 0 1 1 1.397.002.698.698 0 0 1-1.397-.002m-8.913 10.308a.698.698 0 1 1 .002-1.397.698.698 0 0 1-.002 1.397m.018 7.503a.698.698 0 1 1 .001-1.397.698.698 0 0 1-.001 1.397m-.018 7.5a.698.698 0 1 1 .002-1.397.698.698 0 0 1-.002 1.397m10.308 8.915a.698.698 0 1 1-1.397-.002.698.698 0 0 1 1.397.002m7.503-.018a.698.698 0 1 1-1.397-.001.698.698 0 0 1 1.397.001m7.5.018a.698.698 0 1 1-1.397-.002.698.698 0 0 1 1.397.002m.284-8.63H52.518V48.517h16.964v16.964m8.63-.285a.698.698 0 1 1 .002-1.397.698.698 0 0 1-.001 1.397"/><path fill="#246BFD" d="M67.603 49.805H54.398a.59.59 0 0 0-.593.593v13.205c0 .329.264.593.593.593h13.205a.59.59 0 0 0 .593-.593V50.398a.59.59 0 0 0-.593-.593m-.594 13.204H54.992V50.992h12.017z"/><defs><filter id="a" width="121.8" height="121.8" x=".6" y=".4" color-interpolation-filters="sRGB" filterUnits="userSpaceOnUse"><feFlood flood-opacity="0" result="BackgroundImageFix"/><feColorMatrix in="SourceAlpha" result="hardAlpha" values="0 0 0 0 0 0 0 0 0 0 0 0 0 0 0 0 0 0 127 0"/><feMorphology in="SourceAlpha" radius="6" result="effect1_dropShadow_2011_114"/><feOffset dy="4.8"/><feGaussianBlur stdDeviation="12.2"/><feColorMatrix values="0 0 0 0 0.0745098 0 0 0 0 0.0627451 0 0 0 0 0.133333 0 0 0 0.1 0"/><feBlend in2="BackgroundImageFix" result="effect1_dropShadow_2011_114"/><feBlend in="SourceGraphic" in2="effect1_dropShadow_2011_114" result="shape"/></filter></defs></svg>