<svg xmlns="http://www.w3.org/2000/svg" width="60" height="60" fill="none"><path fill="#E4EAF8" d="M1.5 9.383v30.285c0 .51.417.928.928.928h42.77a1.007 1.007 0 0 0 1.007-1.007V9.383z"/><path fill="#D8DCE5" d="M3.99 39.668V9.383H1.5v30.285c0 .51.417.928.928.928h2.489a.93.93 0 0 1-.928-.928"/><path fill="#54A0FF" d="M45.277 4.508H2.427a.94.94 0 0 0-.927.928V9.51h44.705V5.436a.94.94 0 0 0-.928-.928"/><path fill="#FF6B6B" d="M7.084 4.508H2.428a.94.94 0 0 0-.928.928V9.51h5.584z"/><path fill="#EE5253" d="M4.917 4.508h-2.49a.94.94 0 0 0-.927.928V9.51h2.49V5.436a.94.94 0 0 1 .927-.928"/><path fill="#E4EAF8" d="M7.16 19.262v30.285c0 .51.418.928.928.928h42.77a1.007 1.007 0 0 0 1.007-1.007V19.262z"/><path fill="#D8DCE5" d="M9.65 49.547V19.262H7.16v30.285c0 .51.418.928.928.928h2.489a.93.93 0 0 1-.928-.928"/><path fill="#54A0FF" d="M50.937 14.387H8.087a.94.94 0 0 0-.927.927v4.076h44.705v-4.076a.94.94 0 0 0-.928-.927"/><path fill="#8AC2FF" d="M45.047 23.969H13.902a.744.744 0 0 0-.746.745v3.923a.744.744 0 0 0 .745.745h31.146a.745.745 0 0 0 .746-.745v-3.923a.745.745 0 0 0-.746-.745"/><path fill="#54A0FF" d="M45.047 26.898H13.902a.745.745 0 0 1-.746-.746v2.49a.744.744 0 0 0 .745.745h31.146a.745.745 0 0 0 .746-.746v-2.489a.745.745 0 0 1-.746.745"/><path fill="#D8DCE5" d="M45.8 34.449H13.164a.934.934 0 0 1 0-1.867H45.8a.933.933 0 1 1 0 1.867m0 3.84H13.164a.934.934 0 0 1 0-1.868H45.8a.933.933 0 1 1 0 1.867m0 3.838H13.164a.933.933 0 0 1 0-1.866H45.8a.933.933 0 1 1 0 1.866m0 3.84H13.164a.933.933 0 0 1 0-1.867H45.8a.933.933 0 0 1 0 1.867"/><path fill="#FF6B6B" d="M12.744 14.387H8.088a.94.94 0 0 0-.928.927v4.076h5.584z"/><path fill="#EE5253" d="M10.577 14.387h-2.49a.94.94 0 0 0-.927.927v4.076h2.49v-4.076a.94.94 0 0 1 .927-.927"/><path fill="#FF6B6B" d="M45.73 33.512a.34.34 0 0 0-.3.172l-12.42 21.28a.347.347 0 0 0 .3.524h24.842c.27 0 .437-.29.3-.523l-12.42-21.28a.34.34 0 0 0-.301-.173"/><path fill="#E4EAF8" d="M45.658 49.724a1.51 1.51 0 0 0-1.525 1.526c0 .84.684 1.525 1.525 1.525.82 0 1.513-.699 1.513-1.525 0-.827-.693-1.526-1.513-1.526m-.013-9.275c-.867 0-1.473.542-1.473 1.317 0 1.564.182 3.803.182 5.332 0 .656.519 1.096 1.291 1.096.62 0 1.278-.384 1.278-1.096 0-1.529.182-3.768.182-5.332 0-.763-.614-1.317-1.46-1.317"/><path fill="#D8DCE5" d="M45.98 51.25c0-.498.228-.932.586-1.209a1.51 1.51 0 0 0-2.433 1.209c0 .84.684 1.525 1.525 1.525.34 0 .658-.122.914-.322a1.52 1.52 0 0 1-.592-1.204m.221-4.152c0-1.529-.182-3.768-.182-5.332 0-.447.202-.816.54-1.049a1.6 1.6 0 0 0-.914-.268c-.867 0-1.473.542-1.473 1.317 0 1.564.182 3.803.182 5.332 0 .656.519 1.096 1.291 1.096.325 0 .659-.107.905-.31a1.01 1.01 0 0 1-.349-.786"/><path fill="#EE5253" d="M35.498 54.965 46.976 35.3l-.944-1.617a.34.34 0 0 0-.301-.172.34.34 0 0 0-.3.172l-12.422 21.28a.347.347 0 0 0 .3.524h2.49a.347.347 0 0 1-.3-.523"/></svg>