<svg xmlns="http://www.w3.org/2000/svg" width="65" height="65" fill="none"><path fill="#E4EAF8" d="M40.114 65H11.026a5.5 5.5 0 0 1-5.495-5.494V5.495A5.5 5.5 0 0 1 11.026 0h29.088a5.5 5.5 0 0 1 5.495 5.495v54.01A5.5 5.5 0 0 1 40.114 65"/><path fill="#D8DCE5" d="M8.147 59.506V5.495A5.5 5.5 0 0 1 13.642 0h-2.616A5.5 5.5 0 0 0 5.53 5.495v54.01A5.5 5.5 0 0 0 11.026 65h2.616a5.5 5.5 0 0 1-5.495-5.494"/><path fill="#1DD1A1" d="M9.84 13.39v41.132c0 .653.531 1.184 1.185 1.184h29.088c.654 0 1.185-.531 1.185-1.184V13.39z"/><path fill="#15BA8B" d="M12.255 54.522V13.39H9.84v41.13c0 .654.531 1.185 1.185 1.185h2.415a1.186 1.186 0 0 1-1.185-1.184"/><path fill="#D8DCE5" d="M26.704 61.61h-2.273a1.437 1.437 0 0 1 0-2.872h2.273a1.437 1.437 0 0 1 0 2.873M25.316 4.916h-3.304a.98.98 0 1 1 0-1.962h3.304a.98.98 0 1 1 0 1.962m3.807 0h-.413a.981.981 0 0 1 0-1.962h.413a.981.981 0 0 1 0 1.962"/><path fill="#338DEF" d="M9.84 8.923v4.59h31.458v-4.59c0-.653-.532-1.185-1.185-1.185H11.025c-.654 0-1.185.532-1.185 1.185"/><path fill="#FF6B6B" d="M15.896 7.738h-4.871c-.654 0-1.185.532-1.185 1.185v4.59h6.055z"/><path fill="#EE5253" d="M13.442 7.738h-2.417c-.654 0-1.185.532-1.185 1.185v4.59h2.417v-4.59c0-.653.532-1.185 1.185-1.185"/><path fill="#FECA57" d="M57.87 10.746H39.206a1.6 1.6 0 0 0-1.6 1.6v13.797a1.6 1.6 0 0 0 1.6 1.6h1.902c.25 0 .431.236.366.477a9.5 9.5 0 0 1-1.7 3.389c-.408.518.09 1.25.72 1.053 1.956-.608 4.681-1.92 6.054-4.67a.44.44 0 0 1 .395-.249H57.87a1.6 1.6 0 0 0 1.6-1.6V12.346a1.6 1.6 0 0 0-1.6-1.6"/><path fill="#F4B537" d="M42.39 31.609a9.5 9.5 0 0 0 1.7-3.39.378.378 0 0 0-.366-.476h-1.902a1.6 1.6 0 0 1-1.6-1.6V12.346a1.6 1.6 0 0 1 1.6-1.6h-2.616a1.6 1.6 0 0 0-1.6 1.6v13.797a1.6 1.6 0 0 0 1.6 1.6h1.902c.25 0 .431.236.366.477a9.5 9.5 0 0 1-1.7 3.389c-.408.518.09 1.249.72 1.053.54-.168 1.138-.39 1.75-.68a.66.66 0 0 1 .145-.373"/><path fill="#E4EAF8" d="M48.305 21.918c-.62 0-1.124.51-1.124 1.137s.504 1.137 1.124 1.137c.616 0 1.136-.52 1.136-1.137 0-.616-.52-1.137-1.137-1.137m.17-7.617c-1.846 0-2.706 1.123-2.706 1.882 0 .568.472.875.915.875.817 0 .48-1.006 1.751-1.006.245 0 1.045.055 1.045.758 0 1.191-2.038 1.105-2.038 3.462 0 .734.23 1.006.85 1.006.784 0 .901-.417.901-.666 0-.643 0-.998.682-1.53 2.729-2.123 1.48-4.781-1.4-4.781"/><path fill="#576574" d="M25.495 15.129a8.143 8.143 0 0 0-8.143 8.143v3.223c.544-.505 1.318-.779 2.074-.678v-.406c0-.322.275-.577.595-.553 3.148.226 6.352-.774 8.775-2.357a.555.555 0 0 1 .71.087c2.07 2.226 2.058 2.14 2.058 2.43v.797c.828-.124 1.563.132 2.074.607v-3.15a8.143 8.143 0 0 0-8.143-8.143"/><path fill="#3E4B5A" d="M19.537 23.272a8.14 8.14 0 0 1 7.05-8.068 8.143 8.143 0 0 0-9.236 8.068v3.223c.545-.505 1.32-.779 2.075-.678v-.406a.55.55 0 0 1 .111-.332z"/><path fill="#FFBEAB" d="M31.457 25.504v4.46q-.001.074-.004.145c1.578.24 2.815-.902 2.815-2.302 0-1.404-1.238-2.54-2.812-2.303m-11.923 4.46v-4.458c-1.374-.184-2.811.87-2.811 2.3 0 1.4 1.233 2.542 2.815 2.303q-.004-.072-.004-.144"/><path fill="#F7AF9F" d="M33.431 26.024c-.504-.419-1.198-.637-1.975-.52v4.46q0 .073-.003.145c.778.118 1.473-.1 1.978-.52zM19.534 29.59a2.3 2.3 0 0 1-.836-1.783c0-.69.335-1.293.836-1.711v-.59c-1.374-.184-2.811.87-2.811 2.3 0 1.4 1.233 2.542 2.815 2.303q-.004-.072-.004-.144z"/><path fill="#FFBEAB" d="M25.581 35.84c-1.315 0-2.471-.36-3.417-.965v3.196l3.403 4.2 3.403-4.2v-3.286a5.95 5.95 0 0 1-3.389 1.056"/><path fill="#F7AF9F" d="M24.343 35.72a6.1 6.1 0 0 1-2.179-.853v3.196l2.18 2.69z"/><path fill="#54A0FF" d="m37.969 41.33-9.002-3.486-3.403 4.2-3.403-4.2-8.992 3.486s-3.33 1.369-3.33 5.164v8.423a.775.775 0 0 0 .775.775H40.53a.77.77 0 0 0 .768-.768v-8.43c0-3.795-3.33-5.164-3.33-5.164"/><path fill="#338DEF" d="M12.019 54.916v-9.404c0-2.604 1.567-4.066 2.55-4.727l-1.4.543s-3.33 1.369-3.33 5.164v8.424a.775.775 0 0 0 .775.774h2.18a.773.773 0 0 1-.775-.774"/><path fill="#FFCDBF" d="M29.51 22.388a.554.554 0 0 0-.71-.087c-2.423 1.583-5.627 2.584-8.776 2.357a.555.555 0 0 0-.594.553v4.865c0 3.127 2.45 5.983 6.155 5.983a5.99 5.99 0 0 0 5.983-5.983V24.82c0-.291.012-.205-2.059-2.431"/><path fill="#FFBEAB" d="M21.609 30.06v-5.405a13 13 0 0 1-1.585-.013.555.555 0 0 0-.594.553v4.865c0 3.127 2.45 5.983 6.155 5.983q.513-.001 1.003-.086a5.99 5.99 0 0 1-4.98-5.897"/><path fill="#338DEF" d="m29.671 44.202 2.544-5.1-3.25-1.258-3.402 4.2L28.88 44.4a.537.537 0 0 0 .791-.198"/><path fill="#338DEF" d="m21.466 44.202-2.544-5.1 3.25-1.258 3.403 4.2-3.318 2.356a.54.54 0 0 1-.79-.198"/><path fill="#FF6B6B" d="M25.57 42.046v-.003l-.003.002-.002-.002v.003l-2.413 1.714 1.14 1.716h2.55l1.14-1.716z"/><path fill="#FC8686" d="M22.57 55.703h6.007l-1.729-10.215h-2.549z"/><path fill="#EE5253" d="m26.775 42.902-1.206-.856v-.003l-.002.002-.002-.002v.003l-2.413 1.714 1.14 1.716h2.416l-.937-1.41a.38.38 0 0 1 .097-.52z"/><path fill="#FF6B6B" d="m24.3 45.488-1.73 10.215h2.415l1.73-10.215z"/><path fill="#338DEF" d="M16.485 55.699v-7.894a.981.981 0 0 0-1.962 0V55.7zm20.126 0v-7.894a.98.98 0 1 0-1.962 0V55.7z"/></svg>