<svg xmlns="http://www.w3.org/2000/svg" width="65" height="62" fill="none"><path fill="#576574" d="M65 37.694V4.16A4.163 4.163 0 0 0 60.841 0H4.16A4.163 4.163 0 0 0 0 4.159v33.535z"/><path fill="#3E4B5A" d="M6.775 0H4.159A4.164 4.164 0 0 0 0 4.159v33.536h2.616V4.158A4.164 4.164 0 0 1 6.775 0"/><path fill="#D8DCE5" d="M27.879 46.637h9.242V58.08h-9.242z"/><path fill="#C3C8D1" d="M27.879 46.637h2.616V58.08h-2.616z"/><path fill="#E4EAF8" d="M0 37.43v6.157a4.163 4.163 0 0 0 4.159 4.159H60.84a4.163 4.163 0 0 0 4.16-4.16V37.43z"/><path fill="#D8DCE5" d="M2.605 43.587V37.43H0v6.157a4.163 4.163 0 0 0 4.159 4.159h2.605a4.163 4.163 0 0 1-4.16-4.16"/><path fill="#54A0FF" d="M59.167 4.625H5.517a.896.896 0 0 0-.896.896v31.916H60.38v-31.6a1.213 1.213 0 0 0-1.212-1.212"/><path fill="#338DEF" d="M8.133 4.625H5.517a.896.896 0 0 0-.896.896v31.916h2.616V5.52a.896.896 0 0 1 .896-.896"/><path fill="#E4EAF8" d="M46.976 56.996h-28.96c-.85 0-1.54.69-1.54 1.539v1.693c0 .85.69 1.54 1.54 1.54h28.96c.85 0 1.539-.69 1.539-1.54v-1.693c0-.85-.69-1.539-1.54-1.539"/><path fill="#D8DCE5" d="M46.976 59.15h-28.96a1.54 1.54 0 0 1-1.469-1.078q-.07.225-.07.46v1.694c0 .85.689 1.539 1.538 1.539h28.96c.85 0 1.54-.689 1.54-1.539v-1.693q-.001-.242-.071-.462a1.54 1.54 0 0 1-1.468 1.078M35.653 43.574h-6.315a.98.98 0 1 1 0-1.962h6.315a.98.98 0 1 1 0 1.962"/><path fill="#338DEF" d="M21.753 10.817q.415-.951.986-1.818a.19.19 0 0 0-.023-.237l-1.884-1.885a.93.93 0 0 1 0-1.312l.94-.94H5.516a.896.896 0 0 0-.896.896v5.296zm38.626-4.98a1.213 1.213 0 0 0-1.212-1.212H43.229l.94.94a.93.93 0 0 1 0 1.312l-1.885 1.885a.19.19 0 0 0-.023.237q.571.867.986 1.818H60.38z"/><path fill="#FF6B6B" d="M11.532 10.817V4.625H5.517a.896.896 0 0 0-.896.896v5.296z"/><path fill="#EE5253" d="M4.621 5.521v5.296h2.616V5.52a.896.896 0 0 1 .896-.896H5.518a.896.896 0 0 0-.897.896"/><path fill="#E4EAF8" d="M47.255 13.367h-2.658a.12.12 0 0 1-.117-.098 12.1 12.1 0 0 0-1.768-4.267.12.12 0 0 1 .014-.152l1.88-1.88a.995.995 0 0 0 0-1.404l-1.924-1.923a.995.995 0 0 0-1.405 0l-1.88 1.88a.12.12 0 0 1-.15.014 12.1 12.1 0 0 0-4.268-1.769.12.12 0 0 1-.097-.117V.994A.995.995 0 0 0 33.889 0h-2.72a.995.995 0 0 0-.994.994V3.65a.12.12 0 0 1-.097.117c-1.523.31-2.972.91-4.267 1.769a.12.12 0 0 1-.152-.015l-1.88-1.88a.995.995 0 0 0-1.404 0L20.45 5.566a.995.995 0 0 0 0 1.405l1.88 1.88a.12.12 0 0 1 .014.15 12.1 12.1 0 0 0-1.768 4.268.12.12 0 0 1-.117.097h-2.658a.994.994 0 0 0-.993.994v2.72c0 .548.445.993.993.993h2.658a.12.12 0 0 1 .117.097c.31 1.523.91 2.972 1.768 4.268a.12.12 0 0 1-.014.151l-1.88 1.88a.995.995 0 0 0 0 1.405l1.924 1.923a1 1 0 0 0 .702.291 1 1 0 0 0 .702-.29l1.88-1.88a.12.12 0 0 1 .151-.015 12.1 12.1 0 0 0 4.268 1.768.12.12 0 0 1 .097.117v2.658c0 .548.445.994.993.994h2.72a.995.995 0 0 0 .994-.994v-2.658a.12.12 0 0 1 .097-.117c1.523-.31 2.972-.91 4.267-1.768a.12.12 0 0 1 .152.015l1.88 1.88a.994.994 0 0 0 1.404 0l1.924-1.924a.995.995 0 0 0 0-1.405l-1.88-1.88a.12.12 0 0 1-.014-.151 12.1 12.1 0 0 0 1.768-4.268.12.12 0 0 1 .117-.097h2.658a.995.995 0 0 0 .993-.993v-2.72a.994.994 0 0 0-.993-.993"/><path fill="#D8DCE5" d="M23.167 25.877a.995.995 0 0 1 0-1.405l1.88-1.88a.12.12 0 0 0 .014-.15 12.1 12.1 0 0 1-1.768-4.268.12.12 0 0 0-.117-.097h-2.658a.994.994 0 0 1-.994-.994v-2.72c0-.547.446-.993.994-.993h2.657a.12.12 0 0 0 .118-.097c.31-1.523.91-2.972 1.768-4.268a.12.12 0 0 0-.014-.151l-1.88-1.88a.995.995 0 0 1 0-1.405l1.268-1.268-.656-.655a.995.995 0 0 0-1.404 0L20.45 5.569a.995.995 0 0 0 0 1.405l1.88 1.88a.12.12 0 0 1 .014.151 12.1 12.1 0 0 0-1.768 4.268.12.12 0 0 1-.117.097h-2.658a.995.995 0 0 0-.993.993v2.72c0 .548.445.994.993.994h2.658a.12.12 0 0 1 .117.097c.31 1.523.91 2.972 1.768 4.267a.12.12 0 0 1-.014.152l-1.88 1.88a.995.995 0 0 0 0 1.404l1.924 1.924a1 1 0 0 0 .702.29 1 1 0 0 0 .702-.29l.656-.656z"/><path fill="#1DD1A1" d="M32.54 23.238a7.516 7.516 0 1 0-.001-15.031 7.516 7.516 0 0 0 0 15.031"/><path fill="#15BA8B" d="M27.74 15.723a7.516 7.516 0 0 1 6.157-7.391 7.516 7.516 0 1 0 0 14.782 7.52 7.52 0 0 1-6.158-7.391"/><path fill="#D8DCE5" d="M32.887.994c0-.548.446-.994.993-.994h-2.715a.993.993 0 0 0-.994.993v2.658a.12.12 0 0 1-.097.117s.702-.1 2.382-.115a.435.435 0 0 0 .431-.435zm0 29.452v-2.231a.427.427 0 0 0-.425-.427c-1.776-.009-2.23-.07-2.347-.1a.12.12 0 0 1 .056.1v2.658a.994.994 0 0 0 .994.994h2.715a.994.994 0 0 1-.993-.994"/><path fill="#E4EAF8" d="m30.987 18.66-2.128-2.085a.98.98 0 1 1 1.374-1.401l1.443 1.414 3.515-3.427a.98.98 0 0 1 1.586 1.09 1 1 0 0 1-.217.315l-4.202 4.096a.98.98 0 0 1-1.37-.002"/></svg>